<?xml version="1.0" standalone="no"?>
<!DOCTYPE svg PUBLIC "-//W3C//DTD SVG 20010904//EN"
 "http://www.w3.org/TR/2001/REC-SVG-20010904/DTD/svg10.dtd">
<svg version="1.0" xmlns="http://www.w3.org/2000/svg"
 width="848.000000pt" height="1024.000000pt" viewBox="0 0 848.000000 1024.000000"
 preserveAspectRatio="xMidYMid meet">

<g transform="translate(0.000000,1024.000000) scale(0.100000,-0.100000)"
fill="#000000" stroke="none">
<path d="M3470 10008 c-30 -21 -62 -68 -74 -110 -3 -10 -28 -24 -60 -34 -46
-15 -56 -22 -56 -40 0 -13 5 -26 10 -29 6 -3 10 1 10 10 0 8 20 25 45 37 l44
22 21 -27 c27 -34 56 -34 119 -2 43 21 50 29 60 69 16 63 14 83 -9 106 -26 26
-69 25 -110 -2z"/>
<path d="M6956 9956 c-27 -28 -102 -158 -215 -372 -248 -468 -252 -475 -262
-468 -5 3 -16 -10 -24 -28 -9 -20 -14 -26 -15 -15 0 10 -4 16 -9 13 -5 -4 -7
3 -4 14 3 11 9 17 14 14 5 -3 14 7 21 21 10 22 9 28 -3 36 -23 15 -54 6 -51
-13 2 -11 -3 -18 -14 -18 -10 0 -14 -5 -10 -15 13 -34 35 -133 41 -185 3 -30
9 -63 11 -72 4 -15 0 -17 -25 -12 -41 8 -42 -13 -1 -27 31 -11 30 -7 50 -139
14 -91 14 -93 -9 -80 -26 13 -31 13 -31 -5 0 -8 14 -21 30 -30 26 -14 30 -21
30 -58 -1 -33 -3 -38 -11 -24 -18 31 -44 20 -40 -18 0 -6 -15 -11 -35 -11 -26
0 -42 -7 -55 -23 -16 -19 -25 -22 -53 -17 -27 5 -40 2 -64 -19 -16 -14 -32
-25 -36 -25 -3 0 -54 -23 -113 -51 -107 -52 -183 -102 -183 -123 0 -6 -18 -21
-40 -34 -24 -13 -40 -30 -40 -41 0 -21 -85 -95 -99 -87 -22 14 -108 -108 -197
-280 -115 -221 -169 -289 -262 -332 -47 -21 -64 -24 -120 -19 -41 4 -89 18
-129 36 -58 28 -63 33 -64 63 -1 23 -3 26 -6 11 -5 -28 -14 -29 -41 -5 -20 17
-20 20 -7 192 8 96 19 200 24 230 5 30 10 73 10 95 0 22 0 112 1 200 0 88 -2
226 -6 308 l-7 147 57 0 c44 0 58 4 63 17 7 18 -34 190 -50 211 -14 17 -49 15
-102 -8 -79 -34 -76 -39 -73 128 l3 147 65 7 c38 4 69 3 74 -2 7 -7 4 -10 -5
-10 -9 0 -24 -10 -35 -21 -19 -21 -19 -22 2 -15 15 5 28 -3 52 -30 32 -36 39
-72 34 -164 -1 -14 8 -36 18 -50 l20 -25 1 30 1 30 10 -27 c11 -32 38 -38 38
-8 0 11 7 20 15 20 8 0 15 4 15 9 0 5 20 12 45 15 31 5 45 12 45 23 0 12 -7
14 -33 9 -48 -9 -97 3 -97 23 0 9 -4 21 -10 27 -5 5 -13 31 -16 56 l-7 47 34
5 c49 9 655 66 694 66 39 0 43 -4 58 -68 l12 -47 70 1 c113 2 184 8 180 15 -3
3 -26 12 -52 19 -27 7 -57 18 -69 25 -19 12 -20 11 -16 -15 4 -25 1 -28 -39
-34 -23 -4 -46 -3 -51 2 -12 12 -53 210 -45 218 3 3 32 9 65 13 55 7 89 2 137
-19 11 -5 29 -10 40 -12 13 -2 21 -12 23 -31 4 -34 22 -36 22 -1 0 20 -8 28
-37 40 -21 8 -52 22 -70 30 -27 14 -43 15 -114 5 -45 -6 -88 -16 -96 -22 -11
-10 -12 -8 -7 6 7 16 1 17 -72 12 -73 -5 -461 -43 -529 -52 -16 -2 -52 -7 -80
-10 -27 -4 -54 -13 -58 -21 -11 -20 -35 -17 -49 6 -18 28 -28 25 -28 -9 l0
-28 -89 -7 c-161 -13 -267 -56 -298 -122 -16 -32 -16 -37 0 -70 10 -19 21 -32
27 -29 12 7 17 -98 9 -190 -3 -38 -7 -222 -8 -408 -1 -202 -6 -349 -12 -365
-6 -15 -8 -46 -4 -69 5 -38 -4 -233 -21 -439 l-5 -71 -86 -6 c-51 -4 -95 -12
-109 -22 -18 -11 -23 -12 -22 -3 3 15 -55 12 -60 -3 -5 -12 -32 -12 -32 1 0 6
-5 10 -11 10 -5 0 -7 -4 -4 -10 3 -5 1 -10 -4 -10 -6 0 -11 1 -11 3 -1 1 -3
92 -7 202 -3 110 -9 207 -14 216 -5 9 -4 20 2 26 12 12 -5 63 -21 63 -5 0 -10
24 -10 54 0 78 -14 89 -104 81 -176 -14 -179 -16 -176 -97 1 -29 2 -55 1 -58
-8 -19 -8 -60 -1 -60 4 0 6 -19 3 -42 -3 -32 -2 -39 6 -28 8 12 11 7 11 -20 0
-26 -3 -31 -10 -20 -6 10 -7 -42 -3 -146 l6 -161 -114 -8 c-63 -4 -118 -9
-122 -12 -5 -3 -56 -6 -115 -8 -59 -1 -107 -3 -107 -4 0 -1 -56 -2 -124 -3
l-123 -2 -14 29 -14 30 5 -34 c3 -18 5 -44 5 -56 0 -13 8 -32 18 -44 16 -21
35 -23 359 -45 189 -12 345 -24 347 -27 2 -2 9 -157 15 -344 16 -462 16 -456
32 -466 11 -6 11 -11 1 -21 -13 -13 -18 -190 -4 -185 4 1 7 -2 7 -8 0 -5 -4
-9 -8 -7 -4 1 -7 -6 -5 -15 3 -16 -11 -19 -112 -29 -63 -6 -107 -12 -97 -13 9
0 17 -6 17 -11 0 -6 -12 -9 -27 -8 -16 1 -38 -2 -50 -6 -14 -5 -23 -3 -23 3 0
6 5 11 10 11 6 0 10 5 10 11 0 7 -9 9 -22 5 -13 -3 -113 -9 -224 -12 l-201 -6
-11 33 c-11 33 -12 33 -7 -13 3 -27 7 -59 11 -73 l6 -25 -273 0 -274 1 -42 48
-43 49 -6 299 c-5 213 -10 302 -19 313 -7 8 -15 61 -19 120 -3 58 -9 136 -13
174 -6 66 -5 69 13 61 33 -15 104 -17 133 -5 43 18 72 53 78 97 4 30 -2 52
-31 107 -20 38 -32 72 -27 75 5 3 54 65 110 136 l101 130 0 147 0 147 -77 16
c-106 23 -113 25 -113 36 0 6 117 175 260 377 229 322 260 370 255 394 -4 16
-2 28 4 28 5 0 12 9 16 19 3 12 19 21 42 26 86 16 139 61 149 127 5 27 1 40
-20 65 -73 87 -326 88 -379 1 -8 -12 -15 -42 -16 -66 -2 -36 3 -47 32 -77 19
-19 40 -35 47 -35 9 0 10 -10 5 -37 -4 -21 -8 -38 -8 -39 -1 0 -22 -11 -47
-23 l-45 -22 37 5 c21 3 40 0 43 -5 4 -5 -16 -9 -44 -9 -28 0 -51 -4 -51 -10
0 -5 14 -10 30 -10 17 0 30 -2 30 -4 0 -12 -457 -656 -465 -656 -2 0 -15 11
-29 25 -14 14 -35 25 -48 25 -13 0 -56 9 -97 19 -49 12 -85 16 -105 11 -17 -5
-43 -11 -58 -14 -35 -8 -75 -63 -59 -79 9 -9 14 -9 19 0 14 23 80 61 105 61
15 0 24 -4 21 -9 -5 -8 10 -13 28 -10 5 0 8 -3 8 -8 0 -5 12 -14 28 -19 21 -8
23 -11 7 -11 -11 -1 -30 5 -41 13 -14 10 -24 12 -35 4 -11 -8 -11 -9 4 -4 25
8 22 -26 -4 -50 -22 -19 -22 -19 -16 8 l7 26 -51 -18 c-70 -26 -95 -58 -103
-132 -6 -51 -10 -59 -24 -53 -74 30 -186 65 -194 63 -6 -2 33 -19 88 -37 130
-44 132 -46 136 -83 3 -35 28 -52 28 -19 0 11 5 23 12 27 8 5 9 -11 5 -62 -4
-38 -8 -127 -8 -199 -1 -79 -4 -112 -8 -85 l-6 45 -112 -155 c-61 -85 -123
-171 -138 -190 l-26 -35 7 51 c4 31 2 54 -4 58 -17 10 -115 -13 -147 -35 l-30
-20 27 24 c26 24 101 47 153 47 14 0 25 5 25 10 0 26 -139 -2 -180 -37 -25
-21 -30 -32 -30 -69 0 -50 26 -82 80 -103 17 -6 43 -16 59 -22 21 -8 32 -20
36 -40 4 -16 10 -31 14 -34 5 -2 4 -27 -1 -55 -11 -64 -7 -112 11 -118 10 -3
11 3 6 27 -9 40 10 41 24 1 5 -16 14 -30 19 -30 6 0 -1 31 -14 69 -23 66 -23
70 -7 117 20 62 28 71 63 79 16 4 43 19 60 35 27 25 31 35 29 73 -3 43 13 76
62 132 9 11 19 31 22 45 4 27 -1 -367 -7 -490 l-4 -74 19 24 19 25 0 -31 c0
-30 -3 -32 -45 -38 -50 -8 -67 -24 -40 -39 16 -8 14 -11 -14 -23 -38 -16 -36
-33 5 -54 40 -21 44 -28 44 -90 0 -63 -8 -79 -34 -77 -14 1 -22 -7 -28 -30 -5
-18 -13 -33 -18 -33 -4 0 -10 -6 -12 -14 -2 -10 -79 14 -303 95 -392 142 -377
135 -373 173 2 24 8 31 25 31 12 0 25 4 29 8 4 4 18 7 31 7 24 0 33 25 11 32
-8 3 -3 20 16 54 69 119 88 144 120 153 28 8 29 9 11 16 -31 13 -34 24 -29
110 9 146 34 690 34 726 0 29 5 37 28 46 25 9 26 11 7 18 -11 5 -23 13 -26 18
-4 5 -26 11 -51 13 -38 3 -44 0 -44 -16 0 -11 6 -20 13 -20 17 0 36 -37 23
-45 -5 -3 -10 2 -11 12 0 10 -3 13 -6 6 -2 -7 -12 -13 -21 -14 -10 0 -6 -6 12
-13 23 -10 25 -14 12 -19 -15 -6 -15 -9 -1 -36 20 -39 19 -52 -2 -44 -16 6
-16 5 -4 -10 10 -13 10 -17 1 -17 -10 0 -10 -3 0 -15 8 -9 11 -30 7 -55 -3
-23 -1 -40 5 -42 17 -6 -14 -48 -39 -54 -19 -5 -20 -8 -8 -20 7 -8 25 -14 39
-14 20 0 25 6 29 33 l4 32 1 -33 c2 -23 -5 -40 -24 -59 -18 -18 -22 -28 -14
-33 6 -4 11 -10 11 -14 -3 -24 0 -30 10 -16 8 11 9 -22 4 -115 -4 -71 -6 -140
-6 -151 0 -14 -7 -24 -22 -28 -25 -6 -33 -4 -30 6 2 5 -2 8 -7 8 -6 0 -10 -9
-10 -20 0 -11 -5 -20 -12 -20 -6 0 -8 -3 -5 -6 10 -10 -12 -44 -28 -44 -8 0
-15 4 -15 10 0 5 -3 9 -7 9 -5 -1 -26 -1 -48 0 -32 1 -37 4 -22 12 9 5 17 17
17 24 0 8 7 15 16 15 11 0 15 6 11 19 -2 11 -1 41 4 66 7 37 5 55 -7 81 -27
56 -41 43 -42 -37 -2 -79 -3 -82 -24 -74 -12 5 -12 17 -4 70 9 61 8 67 -13 89
-21 22 -23 32 -19 101 3 47 10 80 17 85 9 5 10 10 2 14 -6 4 -11 26 -11 49 1
39 2 40 15 23 8 -10 12 -23 9 -27 -2 -4 4 -13 15 -19 13 -7 22 -7 26 0 3 5 1
10 -4 10 -6 0 -11 7 -11 15 0 8 4 15 8 15 5 0 15 11 22 25 13 23 15 24 36 10
13 -8 29 -15 36 -15 7 0 1 8 -13 18 -22 14 -25 20 -16 40 6 13 15 21 21 19 7
-3 12 13 12 43 0 36 -3 47 -13 43 -15 -6 -17 6 -4 26 5 8 14 10 21 6 9 -5 11
-4 6 3 -4 7 -13 12 -19 12 -7 0 -21 14 -32 30 -27 41 -35 38 -35 -15 0 -36 -3
-43 -16 -38 -11 4 -12 8 -4 13 8 5 9 13 2 26 -5 11 -8 24 -5 30 2 6 -6 19 -17
29 -12 11 -20 31 -20 52 0 18 -4 33 -10 33 -14 0 -12 -74 2 -88 9 -9 8 -12 -5
-12 -9 0 -17 5 -17 12 0 13 -14 2 -16 -13 -1 -5 -2 -34 -3 -64 0 -30 -5 -55
-10 -55 -4 0 -6 12 -3 26 3 19 1 25 -7 20 -8 -5 -8 0 -1 21 9 26 9 27 -5 9 -8
-11 -15 -30 -15 -42 0 -13 -5 -26 -11 -30 -8 -4 -9 16 -4 72 7 72 6 78 -8 65
-9 -7 -24 -11 -33 -7 -13 5 -15 -5 -13 -74 1 -44 -1 -83 -5 -87 -10 -10 -7
-131 4 -138 5 -3 7 0 4 8 -3 8 -1 18 4 21 6 3 8 15 5 26 -4 14 0 20 11 20 9 0
16 -8 16 -20 0 -27 18 -25 30 3 7 18 9 19 11 5 1 -10 2 -24 3 -30 1 -7 10 -12
20 -11 16 1 17 -4 11 -35 -10 -54 -5 -245 6 -259 7 -8 4 -12 -13 -15 -21 -3
-23 -9 -26 -60 -3 -57 -3 -58 -34 -58 l-30 0 7 65 c3 35 3 70 -1 77 -12 19
-22 -19 -23 -83 -1 -37 -6 -61 -16 -69 -8 -7 -15 -18 -15 -24 0 -7 4 -6 9 2 6
10 10 8 16 -10 4 -12 7 -27 6 -31 -1 -5 9 -7 21 -5 15 2 23 -2 23 -11 0 -23
-19 -23 -45 -1 -15 13 -18 20 -9 20 12 0 11 2 -1 10 -11 7 -22 -5 -50 -58 -73
-137 -132 -225 -141 -210 -6 9 -9 5 -9 -13 0 -15 6 -31 13 -37 6 -5 78 -22
160 -38 120 -23 147 -31 147 -45 0 -10 3 -24 6 -32 3 -9 -4 -25 -15 -36 -25
-25 -27 -39 -6 -47 8 -4 15 -17 15 -29 0 -13 5 -27 11 -31 7 -4 9 -21 6 -41
-9 -51 20 -188 53 -259 59 -122 163 -204 259 -204 26 0 96 12 156 26 61 14
124 28 142 31 l32 5 1 -153 c0 -85 6 -244 13 -354 l12 -200 57 -3 57 -3 6 -67
c3 -37 9 -77 13 -88 4 -12 67 -75 140 -141 185 -168 182 -163 182 -328 0 -74
-3 -135 -8 -135 -4 0 -23 28 -42 63 -19 34 -36 55 -37 47 -1 -8 -7 -82 -12
-163 -5 -82 -11 -151 -14 -153 -3 -3 -31 -8 -62 -11 l-57 -6 6 69 c3 38 8 113
12 167 l6 98 -29 -7 c-15 -3 -33 -12 -40 -18 -7 -6 -16 -72 -22 -161 l-10
-150 36 -60 c52 -87 61 -95 102 -95 l37 0 28 -86 c15 -47 45 -118 65 -157 l38
-72 6 -308 c5 -259 4 -307 -8 -297 -7 6 -37 10 -67 8 l-53 -3 -3 -42 c-3 -34
-9 -46 -32 -59 -15 -10 -38 -34 -50 -56 -23 -41 -35 -50 -27 -18 3 13 1 18 -6
13 -7 -4 -8 0 -4 11 4 10 3 15 -3 11 -6 -3 -10 -2 -10 4 0 10 -32 9 -112 -4
-72 -11 -58 -25 22 -23 83 3 89 -2 121 -87 29 -80 30 -117 4 -120 -29 -3 -98
-23 -115 -34 -28 -19 -1 -23 47 -7 28 9 74 15 110 13 62 -2 63 -3 63 -30 l0
-29 -180 8 c-170 6 -182 6 -195 -12 -7 -11 -9 -21 -4 -25 15 -9 -17 -640 -33
-650 -10 -7 -11 -9 0 -9 9 0 10 -5 2 -19 -13 -25 -2 -241 14 -273 9 -17 23
-24 55 -28 47 -5 56 -17 98 -120 26 -65 79 -119 148 -152 33 -15 65 -28 70
-28 6 0 44 -33 84 -74 l74 -74 -8 -384 c-9 -452 -9 -553 -1 -793 3 -99 6 -188
6 -197 0 -17 16 -18 193 -18 l192 0 -52 30 -51 29 18 72 c10 39 22 75 27 79 4
4 122 80 262 169 l255 162 30 -15 c27 -14 229 -41 446 -62 119 -11 149 16
-354 -302 l-249 -157 96 -3 c89 -3 99 -1 138 23 47 30 63 28 23 -4 l-27 -21
24 0 c17 0 47 22 94 68 39 38 111 96 160 130 50 34 124 91 165 126 146 127
134 120 198 110 l57 -9 6 -140 c4 -77 7 -172 8 -212 l1 -72 255 -1 256 0 -6
82 c-4 46 -8 93 -11 105 -3 15 0 21 9 18 7 -3 37 19 67 50 30 30 58 55 62 55
4 0 8 -36 8 -81 0 -72 2 -80 18 -75 9 2 31 7 48 11 52 10 62 30 61 121 -2 77
0 82 31 122 19 23 42 42 53 42 12 0 19 7 19 20 0 25 -5 25 82 -4 40 -14 104
-30 143 -36 38 -6 71 -12 72 -14 5 -4 -106 -276 -122 -298 -20 -29 -19 -42 2
-34 9 4 19 2 22 -3 3 -5 14 -11 24 -13 16 -2 31 27 90 176 l72 180 65 13 c189
37 335 174 379 357 7 26 11 106 10 177 l-1 128 45 53 c46 54 82 118 118 210
11 29 39 92 61 140 l40 86 212 85 c215 87 265 100 347 88 l46 -6 -92 -202
c-51 -111 -97 -208 -102 -215 -21 -26 -23 -58 -7 -107 l16 -50 82 -31 c111
-42 107 -39 112 -97 5 -64 19 -103 37 -103 8 0 31 -11 51 -25 20 -14 42 -25
48 -25 6 0 19 -6 27 -14 18 -16 137 -43 147 -34 9 9 37 138 35 165 -1 19 68
178 148 342 17 36 31 70 31 77 0 7 4 14 9 16 5 2 25 46 45 98 21 52 34 82 31
67 -5 -23 -3 -28 11 -25 10 2 21 17 26 33 13 45 12 227 -2 235 -6 4 -9 17 -5
32 4 15 -4 65 -19 121 -28 106 -26 143 8 132 58 -18 68 -16 235 60 l169 77 16
57 c19 68 20 108 5 184 -13 63 -29 72 -55 33 -8 -14 -30 -28 -47 -32 -18 -3
-101 -26 -185 -50 -114 -32 -158 -41 -175 -34 -12 5 -242 92 -512 194 -269
101 -602 228 -740 281 -137 54 -261 101 -275 104 -24 7 -34 30 -18 41 4 3 -2
11 -13 18 -18 11 -19 10 -13 -12 7 -30 23 -27 -406 -56 -168 -11 -401 -27
-518 -36 -117 -8 -217 -12 -222 -9 -6 3 -10 15 -10 26 0 10 -4 19 -10 19 -13
0 -13 0 3 -46 20 -55 27 -113 16 -119 -5 -4 -9 8 -9 25 0 17 -13 58 -30 92
-35 71 -37 94 -9 101 17 5 20 12 17 44 -2 31 -7 39 -26 41 -22 3 -23 7 -20 85
l3 82 205 12 c113 7 255 16 315 20 l110 8 5 55 c3 31 0 68 -6 85 -11 26 -46
367 -61 585 -3 41 -11 78 -17 82 -6 4 -45 8 -86 8 l-75 0 52 51 c61 62 84 68
276 68 89 1 136 5 155 15 81 42 286 315 257 344 -7 8 -17 1 -91 -63 l-57 -50
-99 0 c-54 0 -98 3 -98 7 0 3 40 41 90 84 49 42 91 83 94 91 3 7 12 13 21 13
9 0 29 7 45 15 27 14 28 17 23 73 -5 54 -4 59 21 75 26 18 34 41 17 51 -5 4
-7 -3 -4 -14 4 -14 0 -20 -11 -20 -9 0 -16 5 -16 12 0 6 -7 4 -18 -5 -10 -10
-24 -17 -31 -17 -6 0 -16 -12 -21 -26 -13 -32 4 -57 31 -49 13 4 19 1 19 -8 0
-9 -9 -15 -22 -14 -13 0 -38 -3 -55 -7 -29 -7 -33 -5 -33 12 0 11 -4 22 -10
24 -5 2 -12 48 -15 103 -10 161 -11 163 -89 125 -64 -31 -135 -106 -170 -179
-29 -63 -110 -150 -221 -242 -16 -13 -46 -41 -65 -62 -31 -32 -41 -37 -80 -37
-99 0 -222 51 -276 114 -52 60 -41 67 160 105 94 18 208 39 254 48 46 9 89 22
96 29 14 14 30 149 20 166 -9 15 -24 -11 -24 -43 0 -24 -5 -28 -59 -40 -41 -9
-57 -17 -54 -26 4 -9 0 -11 -11 -7 -9 3 -13 10 -10 15 7 11 -39 11 -89 0 -20
-5 -39 -5 -42 0 -3 4 -29 6 -58 3 -28 -3 -97 -6 -152 -7 l-100 -2 -3 34 c-3
29 -1 33 15 26 65 -28 89 -29 137 -6 32 16 52 34 66 61 10 20 30 45 45 54 38
25 83 92 102 152 14 44 21 53 42 56 l26 3 8 130 c4 71 5 135 3 142 -3 6 -15
13 -28 15 -21 3 -23 9 -26 68 -3 71 -13 90 -36 71 -10 -8 -16 -35 -18 -74 -3
-62 -3 -62 -35 -65 l-33 -3 0 57 c0 57 1 59 49 105 54 52 85 104 96 162 6 32
11 37 35 37 34 0 42 28 33 128 -6 68 -5 70 18 74 29 4 37 31 37 118 l0 65 -12
-40 -13 -40 -54 0 -54 0 -6 68 c-10 118 -49 120 -49 2 0 -69 -11 -99 -29 -79
-4 5 -1 95 7 199 l14 190 29 27 c26 24 28 30 18 50 -6 13 -17 30 -24 38 -10
12 -11 37 -4 110 5 52 14 174 19 270 14 245 18 262 56 272 19 5 34 16 37 28 5
19 7 19 68 -7 87 -37 212 -39 277 -4 99 51 156 123 273 342 95 179 133 232
220 310 104 92 121 102 191 106 41 2 99 17 181 48 66 25 125 44 131 43 6 -1
26 2 44 6 22 5 32 13 32 27 0 10 6 20 13 20 6 1 19 3 27 4 8 1 22 3 31 4 8 0
25 10 37 21 17 16 22 17 22 6 0 -9 9 -20 19 -26 12 -6 22 -26 26 -52 15 -93
62 -115 112 -53 15 19 33 35 39 35 33 0 73 60 190 283 70 133 155 296 190 362
85 163 98 217 90 375 -10 196 -48 496 -68 534 -8 15 -18 17 -49 13 -49 -6 -64
-18 -95 -76 -13 -25 -33 -61 -44 -78 -11 -18 -17 -33 -14 -33 3 0 -3 -12 -14
-27 -10 -16 -36 -64 -57 -108 -21 -44 -50 -98 -63 -120 -29 -46 -86 -157 -102
-199 -9 -25 -14 -28 -42 -22 -18 3 -36 10 -41 15 -8 8 52 131 128 261 39 66
186 347 233 445 22 46 44 77 63 87 27 16 28 16 53 -15 22 -28 25 -30 26 -11 0
12 -5 35 -11 53 -15 44 -44 40 -93 -13z m-1861 -716 c-28 -12 -47 -12 -40 0 3
6 18 10 33 9 24 0 25 -1 7 -9z m-1837 -157 c-10 -2 -28 -2 -40 0 -13 2 -5 4
17 4 22 1 32 -1 23 -4z m-129 -17 c-10 -9 -69 -36 -69 -32 0 7 52 35 64 36 5
0 7 -2 5 -4z m101 -296 c0 -5 -5 -10 -11 -10 -5 0 -7 5 -4 10 3 6 8 10 11 10
2 0 4 -4 4 -10z m-33 -16 c-3 -3 -12 -4 -19 -1 -8 3 -5 6 6 6 11 1 17 -2 13
-5z m3301 -370 c-3 -22 -5 -24 -21 -12 -16 12 -17 17 -6 41 11 23 14 25 21 12
5 -8 8 -27 6 -41z m-2581 -446 c-3 -7 -5 -2 -5 12 0 14 2 19 5 13 2 -7 2 -19
0 -25z m8 -28 c3 -5 1 -10 -4 -10 -6 0 -11 5 -11 10 0 6 2 10 4 10 3 0 8 -4
11 -10z m729 -56 c-7 -53 -8 -56 -15 -29 -8 26 -4 67 8 88 11 19 13 -4 7 -59z
m-699 -34 c-3 -5 0 -10 8 -10 10 0 13 -17 11 -76 -2 -70 -7 -94 -19 -83 -2 3
-7 44 -11 92 -4 63 -3 87 6 87 6 0 8 -4 5 -10z m-2585 -10 c0 -5 -4 -10 -10
-10 -5 0 -10 5 -10 10 0 6 5 10 10 10 6 0 10 -4 10 -10z m2700 6 c0 -9 -30
-14 -35 -6 -4 6 3 10 14 10 12 0 21 -2 21 -4z m-2823 -38 c-3 -8 -6 -5 -6 6
-1 11 2 17 5 13 3 -3 4 -12 1 -19z m400 -10 c-3 -8 -6 -5 -6 6 -1 11 2 17 5
13 3 -3 4 -12 1 -19z m-287 2 c0 -5 -5 -10 -11 -10 -5 0 -7 5 -4 10 3 6 8 10
11 10 2 0 4 -4 4 -10z m80 -60 c0 -5 -5 -10 -11 -10 -5 0 -7 5 -4 10 3 6 8 10
11 10 2 0 4 -4 4 -10z m207 -62 c-3 -8 -6 -5 -6 6 -1 11 2 17 5 13 3 -3 4 -12
1 -19z m2522 -68 c0 -10 -3 -8 -9 5 -12 27 -12 43 0 25 5 -8 9 -22 9 -30z
m-2532 -27 c-3 -10 -5 -4 -5 12 0 17 2 24 5 18 2 -7 2 -21 0 -30z m2453 27 c0
-5 -18 -10 -41 -10 -24 0 -38 4 -34 10 3 6 22 10 41 10 19 0 34 -4 34 -10z
m-2479 -88 c-6 -2 -8 -9 -5 -14 4 -7 2 -8 -4 -4 -9 5 -8 12 1 27 7 12 13 15
16 7 2 -7 -1 -14 -8 -16z m2369 -14 c0 -19 -2 -20 -10 -8 -13 19 -13 30 0 30
6 0 10 -10 10 -22z m-1480 -58 c0 -16 -4 -30 -10 -30 -11 0 -14 43 -3 53 11
12 13 8 13 -23z m1486 -7 c5 -29 3 -39 -11 -50 -22 -15 -25 -16 -43 -5 -10 7
-8 18 9 50 13 23 26 42 30 42 5 0 11 -16 15 -37z m137 -71 c2 -46 0 -85 -5
-88 -4 -3 -8 39 -7 93 1 115 6 113 12 -5z m-1487 65 c25 -26 84 -152 84 -179
0 -17 -10 -39 -25 -53 -33 -33 -110 -35 -150 -4 l-27 22 7 101 c9 128 15 140
63 131 21 -3 42 -12 48 -18z m1774 -17 c0 -13 -11 -13 -30 0 -12 8 -11 10 8
10 12 0 22 -4 22 -10z m-800 -25 c0 -19 -5 -25 -22 -24 -13 0 -31 4 -41 8 -16
6 -16 9 -5 18 37 29 68 28 68 -2z m288 -17 c-3 -7 -13 -15 -24 -17 -16 -3 -17
-1 -5 13 16 19 34 21 29 4z m648 -155 c-4 -65 -12 -133 -18 -151 -5 -19 -8
-48 -5 -65 3 -18 -1 -153 -9 -302 l-15 -270 -37 -79 -37 -78 -7 83 c-3 46 -7
145 -8 219 -1 74 -5 157 -8 184 -6 45 -10 51 -39 58 -19 5 -42 4 -59 -2 l-27
-11 5 -282 c3 -155 3 -257 -1 -227 -3 30 -9 60 -13 66 -8 11 -43 912 -37 919
5 4 271 52 303 54 17 1 18 -6 12 -116z m-554 60 c6 -7 5 -14 -2 -18 -13 -8
-30 34 -21 55 4 12 6 10 9 -5 2 -11 8 -25 14 -32z m-2652 -12 c0 -6 -4 -13
-10 -16 -5 -3 -10 1 -10 9 0 9 5 16 10 16 6 0 10 -4 10 -9z m2777 -43 c-3 -8
-6 -5 -6 6 -1 11 2 17 5 13 3 -3 4 -12 1 -19z m-2787 2 c0 -5 -5 -10 -11 -10
-5 0 -7 5 -4 10 3 6 8 10 11 10 2 0 4 -4 4 -10z m2660 0 c0 -5 -2 -10 -4 -10
-3 0 -8 5 -11 10 -3 6 -1 10 4 10 6 0 11 -4 11 -10z m9 -92 c1 -10 -3 -18 -9
-18 -5 0 -10 8 -10 18 -1 15 -3 14 -18 -4 -18 -21 -18 -21 -19 10 -1 24 5 35
21 42 22 9 33 -5 35 -48z m-2649 48 c0 -2 -7 -6 -15 -10 -8 -3 -15 -1 -15 4 0
6 7 10 15 10 8 0 15 -2 15 -4z m1158 -241 c8 -103 7 -122 -6 -133 -9 -7 -20
-8 -25 -3 -4 4 -5 92 -1 197 9 206 13 197 32 -61z m1619 173 c-3 -7 -5 -2 -5
12 0 14 2 19 5 13 2 -7 2 -19 0 -25z m-127 -39 c0 -11 -4 -17 -10 -14 -5 3
-10 13 -10 21 0 8 5 14 10 14 6 0 10 -9 10 -21z m135 -18 c3 -5 1 -12 -5 -16
-5 -3 -10 1 -10 9 0 18 6 21 15 7z m-2161 -26 c-4 -8 -8 -15 -10 -15 -2 0 -4
7 -4 15 0 8 4 15 10 15 5 0 7 -7 4 -15z m2026 -57 c0 -19 -16 -5 -17 14 -2 18
0 20 7 8 5 -8 10 -18 10 -22z m105 12 c-3 -5 -22 -10 -41 -10 -19 0 -34 5 -34
10 0 6 18 10 41 10 24 0 38 -4 34 -10z m-135 -56 c0 -21 -4 -33 -10 -29 -6 4
-8 19 -6 33 5 33 5 32 11 32 3 0 5 -16 5 -36z m30 16 c0 -5 -5 -10 -11 -10 -5
0 -7 5 -4 10 3 6 8 10 11 10 2 0 4 -4 4 -10z m139 -32 c0 -35 -2 -39 -9 -21
-8 19 -3 63 6 63 2 0 4 -19 3 -42z m-138 -21 c-8 -8 -11 -7 -11 4 0 20 13 34
18 19 3 -7 -1 -17 -7 -23z m143 -140 c3 -36 1 -69 -5 -72 -5 -4 -9 26 -9 71 0
93 7 94 14 1z m-153 -6 c-15 -27 -14 -34 4 -27 8 3 15 2 15 -3 0 -10 -37 -21
-44 -13 -13 12 -6 62 9 62 8 0 15 6 16 13 0 9 2 9 5 0 3 -7 1 -21 -5 -32z
m-1754 -133 c-2 -18 -4 -4 -4 32 0 36 2 50 4 33 2 -18 2 -48 0 -65z m1776 59
c3 -8 1 -20 -3 -27 -5 -8 -4 -22 1 -31 12 -23 12 -66 0 -74 -13 -8 -20 21 -20
88 0 53 10 74 22 44z m-37 -93 c-3 -9 -6 -19 -6 -23 0 -4 -7 -8 -15 -8 -18 0
-19 13 -2 32 16 19 31 19 23 -1z m-2281 -142 c143 -59 287 -119 320 -132 58
-23 85 -41 85 -55 0 -4 -11 -4 -25 -1 -21 5 -25 3 -25 -16 0 -21 5 -23 45 -23
45 0 64 -13 65 -42 0 -14 -1 -14 -150 -37 -58 -9 -152 -28 -210 -41 -125 -29
-162 -31 -215 -6 -48 21 -115 92 -146 153 -34 66 -59 175 -52 228 7 53 19 80
36 80 7 0 129 -49 272 -108z m2455 88 c0 -5 -2 -10 -4 -10 -3 0 -8 5 -11 10
-3 6 -1 10 4 10 6 0 11 -4 11 -10z m-160 -49 c0 -6 -4 -13 -10 -16 -5 -3 -10
1 -10 9 0 9 5 16 10 16 6 0 10 -4 10 -9z m31 -58 c0 -27 2 -79 4 -118 1 -38 5
-158 9 -265 3 -107 9 -218 12 -247 7 -64 -5 -151 -17 -132 -7 11 -9 10 -9 -3
0 -10 6 -18 13 -18 13 0 21 -58 20 -152 -1 -34 3 -58 9 -58 7 0 6 -5 -1 -13
-6 -8 -8 -17 -4 -21 6 -6 13 -156 18 -411 1 -66 6 -151 10 -189 6 -51 5 -67
-3 -62 -7 4 -12 21 -12 37 0 18 -4 28 -10 24 -5 -3 -10 -29 -10 -57 0 -48 1
-50 18 -35 16 15 17 12 18 -46 0 -53 -1 -58 -10 -34 -5 15 -13 27 -16 27 -5 0
-6 -10 -1 -90 1 -32 3 -33 15 -17 13 16 14 13 17 -33 2 -29 0 -54 -4 -57 -4
-3 -3 -11 3 -18 6 -7 10 -26 9 -41 0 -16 0 -67 1 -114 1 -47 -2 -93 -5 -102
-4 -10 -3 -18 3 -18 9 0 13 -29 13 -94 0 -10 -8 -27 -17 -38 -15 -15 -15 -18
-2 -13 12 5 17 -5 22 -55 4 -34 10 -68 13 -76 3 -8 -1 -14 -11 -14 -19 0 -18
3 -7 -37 8 -27 7 -31 -6 -26 -12 5 -14 16 -9 49 3 25 1 46 -5 49 -14 9 -39
-14 -39 -37 0 -11 -5 -18 -12 -16 -18 6 -25 106 -26 328 0 165 1 181 13 150
l13 -35 2 40 c1 22 1 60 0 85 -11 409 -11 412 5 424 12 9 14 21 9 54 -5 34 -9
40 -20 31 -20 -16 -18 5 3 39 10 17 11 22 3 15 -8 -7 -17 -13 -21 -13 -12 0
-2 152 9 159 6 4 9 15 8 26 -2 11 1 26 7 33 7 9 4 12 -12 12 -11 0 -20 3 -20
8 4 22 -2 52 -9 48 -5 -3 -7 -19 -6 -36 1 -20 -2 -30 -9 -27 -7 2 -11 17 -10
33 3 27 2 27 -7 7 -17 -41 -62 -30 -137 32 -91 75 -154 105 -219 105 -45 0
-56 -4 -73 -26 -23 -29 -27 -68 -11 -110 6 -15 9 -28 7 -30 -1 -2 -199 -6
-439 -10 l-437 -7 0 356 c0 197 4 357 8 357 10 0 897 -342 1076 -415 77 -31
160 -65 185 -75 l45 -18 -3 38 c-3 31 -9 41 -30 49 -15 6 -223 85 -462 177
-674 257 -794 304 -804 314 -5 5 -6 20 -2 34 l6 26 589 0 c323 0 609 -3 633
-6 l46 -6 7 -171 c4 -104 10 -164 16 -156 6 10 9 8 9 -9 0 -13 -4 -20 -10 -17
-6 4 -10 -6 -10 -22 0 -22 2 -25 10 -13 7 11 10 4 10 -27 0 -24 5 -43 10 -43
6 0 10 7 10 16 0 8 5 12 11 8 6 -3 5 6 -3 22 -9 18 -15 71 -17 142 -2 96 0
112 13 112 9 0 16 4 16 10 0 5 -6 7 -14 4 -15 -6 -26 72 -26 193 0 47 -4 72
-10 68 -5 -3 -10 -1 -10 4 0 6 5 11 10 11 6 0 10 17 11 38 0 28 2 32 8 17 7
-18 8 -17 13 7 3 15 2 31 -2 35 -5 4 -10 22 -12 38 -3 17 -3 24 -1 18 7 -21
22 -15 20 7 -1 11 -7 20 -14 20 -17 0 -23 14 -12 30 8 13 10 13 19 0 11 -17
13 -10 4 14 -3 9 -12 16 -20 16 -20 0 -17 40 4 61 27 27 32 23 33 -28z m138
-55 c1 -16 -3 -28 -9 -28 -5 0 -10 5 -10 10 0 6 -21 10 -47 11 -42 0 -45 1
-23 10 14 6 35 8 48 6 19 -4 22 0 23 27 0 26 2 28 9 11 5 -11 9 -32 9 -47z
m-2009 -2 c0 -8 -4 -18 -10 -21 -5 -3 -10 3 -10 14 0 12 5 21 10 21 6 0 10 -6
10 -14z m2010 -87 c0 -31 -4 -48 -10 -44 -5 3 -10 26 -10 51 0 24 5 44 10 44
6 0 10 -23 10 -51z m326 -15 c-3 -9 -6 -18 -6 -20 0 -2 -4 -4 -9 -4 -5 0 -7 9
-4 20 3 11 10 20 15 20 6 0 7 -7 4 -16z m-323 -164 c4 -69 2 -107 -3 -95 -8
19 -14 223 -6 214 2 -2 6 -56 9 -119z m-2069 4 c3 -9 6 -32 6 -51 0 -34 -1
-35 -29 -30 -19 4 -31 2 -35 -6 -2 -7 -5 11 -5 40 -1 46 1 52 22 56 12 2 25 5
28 6 4 0 10 -6 13 -15z m342 -10 c-9 -9 -20 -14 -23 -10 -4 3 2 13 13 20 25
18 31 12 10 -10z m199 -74 c3 -5 1 -10 -4 -10 -6 0 -11 5 -11 10 0 6 2 10 4
10 3 0 8 -4 11 -10z m-535 -45 c0 -9 -9 -15 -25 -15 -18 0 -23 4 -19 15 4 8
15 15 25 15 10 0 19 -7 19 -15z m2731 -55 c-5 -37 -35 -92 -66 -120 l-28 -25
7 64 c3 35 6 75 6 88 0 22 3 24 43 21 38 -3 42 -5 38 -28z m-664 -12 c-3 -8
-6 -5 -6 6 -1 11 2 17 5 13 3 -3 4 -12 1 -19z m8 -105 c2 -43 7 -126 10 -185
5 -70 4 -108 -3 -108 -5 0 -9 19 -9 43 0 23 -3 110 -7 192 -4 83 -5 147 -1
143 4 -3 8 -42 10 -85z m-1554 -270 c-7 -39 -9 -21 -10 99 0 80 2 155 7 165
11 27 14 -208 3 -264z m1356 225 c-3 -8 -6 -5 -6 6 -1 11 2 17 5 13 3 -3 4
-12 1 -19z m212 -315 c0 -29 -2 -33 -8 -18 -7 18 -4 55 5 55 2 0 4 -17 3 -37z
m-2 -65 c-3 -8 -6 -5 -6 6 -1 11 2 17 5 13 3 -3 4 -12 1 -19z m597 -100 c-13
-46 -33 -84 -58 -113 l-25 -30 -1 67 c0 90 4 98 52 98 36 0 39 -2 32 -22z
m-586 -73 c0 -25 -4 -45 -9 -45 -5 0 -9 23 -9 51 0 27 4 48 8 45 5 -3 9 -26
10 -51z m-168 -39 c0 -3 -4 -8 -10 -11 -5 -3 -10 -1 -10 4 0 6 5 11 10 11 6 0
10 -2 10 -4z m-449 -38 c6 -12 32 -43 56 -69 27 -28 45 -58 46 -74 2 -27 0
-28 -102 -51 -57 -13 -123 -33 -146 -44 -34 -16 -58 -20 -111 -18 l-67 3 -13
40 c-14 40 -14 40 -9 -26 l5 -65 -72 -23 c-120 -38 -277 -113 -371 -177 -94
-63 -137 -88 -141 -82 -2 1 -6 108 -9 236 l-5 233 25 10 c29 11 28 38 -2 54
-13 6 -19 18 -17 33 3 21 8 22 90 23 260 4 799 15 814 17 10 1 23 -8 29 -20z
m619 -8 c0 -11 -2 -20 -4 -20 -2 0 -6 9 -9 20 -3 11 -1 20 4 20 5 0 9 -9 9
-20z m-3 -107 c-3 -10 -5 -2 -5 17 0 19 2 27 5 18 2 -10 2 -26 0 -35z m-200
-45 c-3 -8 -6 -5 -6 6 -1 11 2 17 5 13 3 -3 4 -12 1 -19z m204 -30 c-3 -21 -6
-26 -9 -15 -3 17 3 47 11 47 2 0 1 -15 -2 -32z m-198 -23 c-7 -21 -13 -19 -13
6 0 11 4 18 10 14 5 -3 7 -12 3 -20z m624 -11 c-3 -3 -12 -4 -19 -1 -8 3 -5 6
6 6 11 1 17 -2 13 -5z m-584 -16 c8 -24 -12 -45 -45 -46 -52 -2 -69 15 -25 23
22 4 37 13 37 21 0 17 27 19 33 2z m-426 -4 c-3 -3 -12 -4 -19 -1 -8 3 -5 6 6
6 11 1 17 -2 13 -5z m96 -1 c-7 -2 -21 -2 -30 0 -10 3 -4 5 12 5 17 0 24 -2
18 -5z m63 -38 c-23 -17 -36 -19 -36 -6 0 5 8 12 18 14 32 9 37 6 18 -8z m194
-24 c0 -3 -12 -11 -26 -18 -22 -10 -25 -10 -20 3 3 9 6 19 6 24 0 4 9 6 20 3
11 -3 20 -8 20 -12z m237 -28 c-3 -10 -5 -2 -5 17 0 19 2 27 5 18 2 -10 2 -26
0 -35z m-1096 -44 c-40 -16 -75 -28 -78 -26 -5 6 118 56 137 56 8 0 -18 -13
-59 -30z m334 0 c-3 -4 -146 -92 -317 -195 l-311 -187 -61 33 c-77 41 -76 41
-70 67 6 21 53 41 549 231 159 61 226 77 210 51z m165 -6 c0 -5 -7 -42 -16
-83 -22 -100 -25 -413 -5 -483 8 -26 12 -50 9 -52 -2 -2 -77 -7 -165 -11
l-162 -6 -190 107 c-105 59 -191 110 -191 114 0 3 152 99 338 213 299 183 382
226 382 201z m597 -15 c-3 -8 -6 -5 -6 6 -1 11 2 17 5 13 3 -3 4 -12 1 -19z
m-384 -7 c4 -4 -9 -59 -28 -122 -68 -216 -86 -298 -84 -384 l2 -80 -37 -6
c-40 -7 -47 -1 -65 51 -29 81 -23 366 10 508 l13 54 90 -7 c50 -4 95 -10 99
-14z m121 -7 l46 -7 0 -63 c0 -35 -4 -64 -8 -64 -5 0 -16 -18 -26 -41 -16 -36
-17 -61 -11 -257 7 -216 7 -217 -15 -230 -27 -17 -30 -13 -37 36 -6 46 -29 57
-89 46 -54 -10 -74 14 -74 90 0 74 16 145 78 344 52 168 43 158 136 146z m269
-23 c2 -10 1 -25 -4 -32 -6 -10 -9 -4 -9 19 0 36 5 42 13 13z m-1214 -15 c-8
-9 -163 -66 -167 -62 -2 2 32 18 75 35 73 28 102 37 92 27z m1220 -140 c-5 -6
-9 7 -8 35 l1 44 8 -35 c5 -20 5 -39 -1 -44z m6 -46 c3 -5 1 -10 -4 -10 -6 0
-11 5 -11 10 0 6 2 10 4 10 3 0 8 -4 11 -10z m6 -163 c-8 -8 -11 7 -10 54 l1
64 10 -54 c7 -37 7 -56 -1 -64z m-1481 3 c0 -6 -54 -40 -64 -40 -3 0 -6 18 -6
40 l0 40 35 -17 c19 -9 35 -19 35 -23z m1775 8 c33 -15 27 -32 -13 -36 -28 -3
-32 0 -32 22 0 29 7 31 45 14z m-2065 -131 c-17 -17 -30 -37 -30 -44 0 -14 -9
-16 -26 -5 -15 10 -37 79 -29 92 3 5 24 10 46 10 37 0 39 1 40 33 1 31 1 31
15 -12 13 -43 13 -44 -16 -74z m1767 46 c-3 -10 -5 -2 -5 17 0 19 2 27 5 18 2
-10 2 -26 0 -35z m-1201 -77 l199 -113 6 -111 c4 -61 10 -115 14 -121 3 -6 3
-11 -2 -11 -13 0 -507 282 -530 304 -16 13 -23 31 -23 56 0 33 4 38 63 73 34
20 65 37 68 37 4 0 96 -51 205 -114z m1557 79 c-3 -9 -8 -14 -10 -11 -3 3 -2
9 2 15 9 16 15 13 8 -4z m-133 -15 c0 -5 -2 -10 -4 -10 -3 0 -8 5 -11 10 -3 6
-1 10 4 10 6 0 11 -4 11 -10z m30 -27 c0 -5 -5 -15 -10 -23 -8 -12 -10 -11
-10 8 0 12 5 22 10 22 6 0 10 -3 10 -7z m74 -18 c3 -8 1 -15 -4 -15 -6 0 -10
7 -10 15 0 8 2 15 4 15 2 0 6 -7 10 -15z m-314 -55 c0 -22 -4 -40 -10 -40 -5
0 -10 18 -10 40 0 22 5 40 10 40 6 0 10 -18 10 -40z m625 30 c3 -5 1 -10 -4
-10 -6 0 -11 5 -11 10 0 6 2 10 4 10 3 0 8 -4 11 -10z m-2411 -97 c14 -26 15
-26 16 -6 0 12 5 25 10 28 6 4 10 -12 10 -42 0 -31 -3 -43 -9 -34 -5 7 -14 11
-19 7 -11 -6 -42 42 -42 64 0 20 19 10 34 -17z m1286 7 c0 -5 -2 -10 -4 -10
-3 0 -8 5 -11 10 -3 6 -1 10 4 10 6 0 11 -4 11 -10z m-234 -37 c-10 -10 -19 5
-10 18 6 11 8 11 12 0 2 -7 1 -15 -2 -18z m-526 -151 l275 -157 9 -58 c7 -42
6 -61 -2 -66 -13 -8 8 -162 26 -183 5 -7 13 -43 17 -80 l7 -68 42 0 c22 0 154
7 291 15 314 18 365 19 365 3 0 -11 -168 -124 -202 -137 -5 -1 -17 4 -28 14
-11 10 -20 12 -24 6 -4 -5 -2 -12 4 -16 20 -13 9 -31 -38 -59 -26 -17 -105
-67 -177 -112 -554 -349 -717 -445 -732 -433 -12 11 -17 10 -28 -4 -8 -12 -26
-17 -59 -17 l-46 0 -1 68 c-2 165 3 390 10 422 5 26 13 36 29 38 12 2 22 10
22 18 0 8 7 14 15 14 17 0 18 4 9 38 -5 17 -11 21 -26 16 -18 -5 -19 -3 -12
28 13 58 6 200 -15 311 -17 90 -21 146 -21 333 0 123 3 224 8 223 4 0 131 -71
282 -157z m1270 137 c0 -5 -4 -9 -10 -9 -5 0 -10 7 -10 16 0 8 5 12 10 9 6 -3
10 -10 10 -16z m-314 -84 c-21 -22 -26 -19 -26 15 0 39 33 61 38 24 2 -13 -3
-31 -12 -39z m314 -15 c0 -5 -2 -10 -4 -10 -3 0 -8 5 -11 10 -3 6 -1 10 4 10
6 0 11 -4 11 -10z m0 -50 c0 -16 -2 -30 -4 -30 -2 0 -6 14 -8 30 -3 17 -1 30
4 30 4 0 8 -13 8 -30z m3 -155 c-7 -21 -13 -19 -13 6 0 11 4 18 10 14 5 -3 7
-12 3 -20z m-296 -117 c-3 -8 -6 -5 -6 6 -1 11 2 17 5 13 3 -3 4 -12 1 -19z
m-1248 -280 c0 -27 -3 -48 -8 -48 -18 0 -21 17 -14 86 6 56 8 63 14 39 4 -16
7 -51 8 -77z m-9 -114 c0 -8 -4 -12 -10 -9 -5 3 -10 10 -10 16 0 5 5 9 10 9 6
0 10 -7 10 -16z m1294 -19 c-18 -15 -17 -16 15 -9 23 4 31 3 27 -5 -4 -6 -31
-11 -59 -11 l-52 1 35 19 c42 23 61 26 34 5z m-1654 -80 l0 -66 -28 15 c-55
29 -59 43 -22 81 19 19 38 35 42 35 4 0 8 -29 8 -65z m1550 40 c-46 -18 -64
-17 -25 0 17 8 37 14 45 14 8 0 -1 -7 -20 -14z m155 -126 c4 -72 3 -134 -1
-139 -5 -4 -258 -162 -563 -350 l-554 -342 -31 18 c-88 51 -104 64 -109 91 -3
15 -2 30 3 33 4 3 13 24 19 47 16 59 73 100 307 221 269 140 391 218 600 384
62 48 116 88 120 88 5 0 22 14 38 30 32 33 71 48 127 49 l37 1 7 -131z m-265
62 c-57 -46 -200 -151 -200 -147 0 6 222 176 229 176 3 -1 -10 -14 -29 -29z
m-1230 -21 c-8 -5 -19 -10 -25 -10 -5 0 -3 5 5 10 8 5 20 10 25 10 6 0 3 -5
-5 -10z m1680 -30 c-20 -13 -50 -13 -50 0 0 6 15 10 33 10 24 0 28 -3 17 -10z
m1510 -25 c-7 -9 -15 -13 -17 -11 -7 7 7 26 19 26 6 0 6 -6 -2 -15z m32 -7
c-7 -7 -12 -8 -12 -2 0 14 12 26 19 19 2 -3 -1 -11 -7 -17z m-2112 -32 c0 -2
-19 -19 -42 -36 l-43 -32 39 36 c38 35 46 40 46 32z m2080 -6 c0 -6 -7 -13
-15 -16 -20 -8 -48 3 -40 16 8 13 55 13 55 0z m-1638 -122 c-9 -9 -12 -1 -11
33 l1 44 11 -33 c7 -24 7 -36 -1 -44z m34 27 c-3 -8 -2 -15 2 -15 5 0 9 -36 9
-81 1 -57 -2 -79 -10 -76 -19 6 -19 187 0 187 3 0 3 -7 -1 -15z m429 4 c12
-19 -5 -23 -22 -6 -16 16 -16 17 -1 17 9 0 20 -5 23 -11z m1155 -16 c0 -23 55
-222 63 -228 15 -13 51 -25 71 -25 14 0 44 -7 67 -16 48 -20 48 -21 -12 -155
-29 -65 -38 -93 -31 -106 16 -27 -32 -87 -118 -148 -87 -60 -116 -95 -136
-162 -18 -58 -18 -83 0 -83 9 0 16 17 20 49 7 54 46 115 95 150 38 28 39 21 2
-32 -40 -58 -73 -126 -69 -142 6 -24 47 3 69 47 38 76 156 233 202 270 27 23
64 71 96 125 28 48 55 94 60 102 7 11 22 9 81 -15 79 -31 96 -53 85 -111 -6
-32 -3 -35 97 -109 57 -42 111 -78 121 -81 17 -5 17 -6 0 -20 -16 -13 -9 -14
57 -8 41 3 86 7 100 8 22 2 25 -2 28 -34 2 -23 -2 -38 -10 -42 -7 -2 -248
-100 -536 -216 -288 -116 -528 -209 -533 -206 -5 4 -9 14 -9 25 0 10 -7 21
-16 24 -20 8 -23 6 -27 -20 -7 -42 -43 -74 -86 -74 -12 0 -21 -4 -21 -10 0 -5
-8 -10 -18 -10 -10 0 -22 -3 -26 -7 -4 -5 -20 -8 -34 -9 -38 -1 -253 -80 -263
-96 -5 -7 -9 -8 -9 -2 0 7 -15 8 -50 0 -33 -6 -53 -7 -60 0 -5 5 -12 48 -15
94 -3 47 -8 102 -10 123 -4 28 -2 37 9 37 8 0 18 -4 21 -10 10 -16 38 -12 31
5 -4 12 3 15 37 15 38 0 382 98 374 107 -2 2 -96 14 -208 28 -112 13 -226 29
-254 35 -27 6 -59 11 -70 11 -18 0 -65 35 -65 49 0 7 80 24 234 49 65 11 123
24 129 30 6 6 12 50 14 98 2 60 0 82 -6 68 -5 -11 -10 -32 -10 -46 l-1 -27
-129 -7 c-98 -5 -128 -10 -125 -20 4 -9 -5 -12 -28 -12 -45 0 -117 -14 -124
-24 -3 -5 -16 -2 -29 7 -14 9 -32 14 -40 10 -8 -3 -15 -1 -15 4 0 23 -21 7
-26 -20 -4 -16 -11 -34 -18 -39 -19 -14 -77 -19 -82 -6 -6 15 -61 17 -86 4
-26 -14 -53 4 -53 35 -1 19 4 26 20 26 11 1 50 3 88 6 62 5 67 7 67 30 0 16 4
22 14 18 8 -3 16 2 19 13 3 10 5 4 6 -14 1 -28 5 -33 25 -33 21 0 23 4 24 58
0 81 0 82 16 82 7 0 17 -15 21 -32 4 -18 9 -27 12 -20 9 23 23 1 23 -37 0 -47
14 -61 61 -61 35 0 37 1 35 33 -3 39 38 127 59 127 14 0 17 6 14 28 -1 4 -5 6
-11 4 -5 -1 -7 2 -3 8 14 22 -14 38 -59 33 -26 -3 -46 -1 -50 6 -4 7 0 11 12
11 15 0 18 6 14 28 -3 22 4 36 27 60 39 38 39 62 2 104 -27 31 -29 41 -36 146
-4 61 -6 112 -4 113 25 4 773 57 827 58 l72 1 0 -27z m-942 -117 l3 -117 -28
3 c-34 4 -38 23 -28 155 7 89 7 91 28 84 21 -8 22 -16 25 -125z m-1318 110 c0
-4 -104 -68 -140 -86 -41 -21 -9 5 60 49 60 37 80 47 80 37z m2650 -27 c0 -3
30 -14 68 -24 37 -10 87 -27 112 -38 25 -10 59 -21 75 -24 17 -3 44 -11 60
-19 17 -8 64 -25 105 -38 110 -35 180 -61 212 -77 10 -5 26 -9 36 -9 10 0 22
-4 28 -9 5 -5 25 -13 44 -18 30 -8 35 -13 32 -35 -2 -17 3 -30 15 -37 23 -13
9 -14 -15 -1 -9 5 -60 26 -112 46 -219 84 -528 206 -565 224 -22 10 -51 22
-65 26 -14 4 -40 15 -59 25 l-35 18 32 -2 c18 -1 32 -5 32 -8z m-2000 -53 c0
-28 -13 -11 -16 21 -2 21 -1 24 6 13 5 -8 10 -24 10 -34z m-59 17 c1 -10 1
-24 0 -30 -1 -7 3 -13 9 -13 6 0 8 -10 4 -26 -4 -17 -2 -29 7 -36 11 -7 11
-11 2 -15 -7 -2 -13 -20 -13 -39 0 -21 4 -33 10 -29 6 3 10 2 10 -4 0 -5 -5
-13 -10 -16 -6 -4 -9 -41 -6 -93 2 -48 5 -107 5 -132 1 -33 4 -41 11 -30 7 11
10 7 10 -17 0 -18 -4 -33 -10 -33 -13 0 -13 -113 0 -126 27 -27 -23 -33 -330
-41 -469 -12 -433 -14 -440 22 -4 17 -12 40 -19 50 -12 20 -12 20 -7 0 2 -11
8 -48 11 -82 4 -34 12 -69 18 -77 12 -16 192 -38 627 -78 l135 -13 8 -120 c4
-66 6 -157 5 -202 l-3 -82 -410 235 c-632 364 -675 389 -672 396 1 4 200 129
442 279 242 149 474 293 515 319 85 55 90 57 91 33z m558 -115 c1 -16 -3 -28
-9 -28 -6 0 -9 32 -9 78 2 75 2 75 9 27 5 -27 9 -62 9 -77z m-297 21 c6 -4 8
-14 5 -23 -12 -30 -22 -16 -23 32 -1 26 0 36 3 22 3 -14 10 -28 15 -31z
m-1132 -12 c-18 -17 -98 -64 -87 -51 9 10 89 62 97 63 2 1 -2 -5 -10 -12z
m941 -72 c-3 -5 -6 -13 -7 -17 -4 -24 -7 -18 -14 27 -5 32 -3 55 4 64 9 11 12
6 16 -25 3 -21 4 -43 1 -49z m-1 -55 c0 -5 -5 -10 -11 -10 -5 0 -7 5 -4 10 3
6 8 10 11 10 2 0 4 -4 4 -10z m2136 -25 c-1 -23 -1 -23 -18 -5 -23 25 -23 39
1 33 12 -3 18 -13 17 -28z m-1946 -5 c0 -5 -4 -10 -10 -10 -5 0 -10 5 -10 10
0 6 5 10 10 10 6 0 10 -4 10 -10z m2075 -10 c10 -11 22 -17 27 -14 5 3 16 0
24 -7 8 -7 34 -16 57 -20 55 -9 109 -30 125 -49 8 -8 11 -9 7 -2 -8 15 -3 15
30 0 14 -6 25 -15 25 -20 0 -4 14 -8 30 -8 17 0 30 -4 30 -9 0 -5 18 -11 40
-15 23 -3 43 -13 46 -20 3 -8 13 -12 23 -9 10 2 25 -2 33 -10 8 -9 34 -21 57
-28 40 -12 69 -34 59 -45 -6 -5 -240 85 -351 135 -38 17 -75 31 -82 31 -18 0
-258 90 -269 101 -6 5 6 9 30 9 28 0 47 -6 59 -20z m-3662 -7 c-7 -2 -19 -2
-25 0 -7 3 -2 5 12 5 14 0 19 -2 13 -5z m1419 -5 c-7 -7 -12 -27 -12 -45 0
-18 -4 -33 -9 -33 -15 0 -21 30 -11 51 6 11 8 24 5 29 -3 6 4 10 16 10 18 0
20 -3 11 -12z m2813 2 c3 -5 -1 -10 -9 -10 -9 0 -16 5 -16 10 0 6 4 10 9 10 6
0 13 -4 16 -10z m-2197 -70 c3 -61 1 -70 -15 -71 -35 -1 19 -17 80 -24 32 -4
57 -9 54 -11 -5 -5 -201 12 -307 26 -57 8 -53 8 33 4 89 -5 97 -4 97 13 0 15
-2 16 -10 3 -7 -10 -9 7 -8 55 1 69 1 69 8 20 l6 -50 5 45 c5 38 7 42 14 22 6
-18 10 -20 16 -10 5 7 6 21 3 31 -3 10 0 17 8 17 10 0 15 -19 16 -70z m1760
-16 c160 -59 217 -83 200 -84 -3 0 -48 16 -98 35 -50 19 -97 35 -103 34 -8 0
-8 -2 1 -6 6 -2 12 -8 12 -13 0 -17 -57 7 -135 58 -11 7 -39 21 -62 32 -48 21
-59 36 -15 19 15 -6 105 -40 200 -75z m452 46 c8 -5 11 -10 5 -10 -5 0 -17 5
-25 10 -8 5 -10 10 -5 10 6 0 17 -5 25 -10z m-4152 -27 c-14 -16 -30 -37 -36
-48 -10 -18 -11 -17 -12 12 0 33 28 63 59 63 10 0 7 -8 -11 -27z m4355 -14
c-8 -8 -19 -8 -40 0 -21 8 -22 10 -5 7 14 -3 25 1 29 10 4 11 9 12 16 5 8 -8
8 -14 0 -22z m71 18 c17 -12 17 -17 5 -42 -11 -22 -21 -28 -47 -29 -19 -1 -38
5 -44 12 -8 8 -7 12 3 12 8 0 20 14 27 30 15 33 29 37 56 17z m-4871 -161
c-12 -19 -18 17 -14 90 l5 79 7 -80 c4 -44 5 -84 2 -89z m355 82 c-4 -44 -38
-53 -38 -10 0 32 7 42 27 42 10 0 13 -10 11 -32z m1396 -51 c-3 -15 -10 -25
-14 -22 -6 4 -7 19 -1 60 0 5 5 5 12 -2 5 -5 7 -22 3 -36z m136 23 c0 -5 -14
-10 -31 -10 -17 0 -28 4 -24 10 3 6 17 10 31 10 13 0 24 -4 24 -10z m2500 -10
c8 -5 11 -10 5 -10 -5 0 -17 5 -25 10 -8 5 -10 10 -5 10 6 0 17 -5 25 -10z
m-2600 -10 c0 -5 -4 -10 -10 -10 -5 0 -10 5 -10 10 0 6 5 10 10 10 6 0 10 -4
10 -10z m447 -12 c-3 -8 -6 -5 -6 6 -1 11 2 17 5 13 3 -3 4 -12 1 -19z m-1850
-10 c-3 -8 -6 -5 -6 6 -1 11 2 17 5 13 3 -3 4 -12 1 -19z m3929 -33 c-3 -20
-20 -20 -24 -1 -2 9 3 16 11 16 9 0 14 -7 13 -15z m-2510 -83 c-3 -2 -12 -2
-21 2 -13 5 -13 9 -3 26 13 20 13 20 21 -2 4 -11 5 -23 3 -26z m-1356 6 c22
-13 40 -25 40 -28 -1 -6 -105 -70 -115 -70 -3 0 -4 8 -1 18 3 9 10 36 16 60 6
23 13 42 16 42 3 0 23 -10 44 -22z m-437 -60 c3 -40 4 -74 1 -77 -2 -3 -13 4
-23 15 -15 15 -18 29 -14 77 8 83 29 75 36 -15z m4164 66 c-3 -3 -12 -4 -19
-1 -8 3 -5 6 6 6 11 1 17 -2 13 -5z m-3843 -43 c3 -4 -1 -28 -8 -52 l-14 -44
-1 53 c-1 47 9 66 23 43z m1463 -13 c13 -30 2 -66 -14 -46 -11 13 -13 68 -2
68 3 0 10 -10 16 -22z m-37 -38 c0 -16 -4 -30 -8 -30 -6 0 -9 47 -3 58 5 10
11 -3 11 -28z m-614 -314 l579 -334 3 -113 c2 -75 7 -116 15 -121 8 -5 8 -8 1
-8 -12 0 -6 -52 7 -60 4 -3 4 -12 -1 -20 -8 -13 -10 -12 -10 3 0 9 -4 17 -10
17 -5 0 -33 14 -62 31 -121 72 -434 242 -583 317 -149 75 -231 125 -430 263
-44 31 -107 71 -140 89 -94 52 -153 99 -157 123 -2 18 14 33 97 85 55 34 102
62 106 62 3 0 266 -150 585 -334z m3288 311 c-13 -22 -37 -47 -46 -47 -15 0
-8 23 13 47 22 22 45 22 33 0z m52 -3 c-4 -9 -9 -15 -11 -12 -3 3 -3 13 1 22
4 9 9 15 11 12 3 -3 3 -13 -1 -22z m-2528 -54 c1 -27 -3 -50 -8 -50 -11 0 -24
85 -15 99 13 22 23 0 23 -49z m-1936 -54 c3 -28 7 -31 39 -34 46 -4 49 -16 49
-193 0 -150 6 -143 -106 -105 -101 34 -126 49 -160 98 -30 42 -64 101 -64 113
0 3 43 5 95 5 l95 0 0 97 0 96 24 -22 c14 -13 26 -38 28 -55z m4438 39 c0 -4
-7 -20 -16 -38 -17 -32 -17 -32 -26 -8 -6 18 -4 27 9 37 19 14 33 18 33 9z
m-170 -15 c0 -5 -4 -10 -10 -10 -5 0 -10 5 -10 10 0 6 5 10 10 10 6 0 10 -4
10 -10z m-1877 -102 c11 -130 8 -581 -3 -598 -8 -13 -10 -13 -10 1 0 9 -7 19
-15 23 -20 7 -21 99 -1 119 21 21 30 127 13 149 -18 22 -68 17 -78 -8 -4 -10
-7 71 -7 181 1 110 3 183 5 162 3 -24 9 -37 16 -34 7 2 11 17 9 35 -3 26 1 34
20 41 42 17 45 14 51 -71z m-133 30 c0 -18 4 -114 9 -213 6 -99 13 -321 16
-492 5 -300 5 -313 -13 -313 -18 0 -19 13 -25 183 -3 100 -11 329 -18 509 -6
179 -9 334 -6 342 12 30 37 18 37 -16z m163 17 c4 -8 2 -17 -3 -20 -6 -4 -10
3 -10 14 0 25 6 27 13 6z m-613 -76 c0 -10 -4 -19 -9 -19 -10 0 -21 36 -14 44
10 10 23 -5 23 -25z m128 -19 c1 -16 -2 -30 -8 -30 -11 0 -14 43 -3 53 9 10 8
10 11 -23z m2420 -7 c-2 -14 -15 -18 -53 -20 l-50 -2 40 19 c51 24 67 24 63 3z
m-2574 -19 c3 -8 2 -12 -4 -9 -6 3 -10 10 -10 16 0 14 7 11 14 -7z m-1200
-161 c138 -81 276 -163 306 -184 30 -20 109 -66 176 -102 101 -55 374 -212
502 -289 l33 -21 -43 -28 -43 -29 -25 27 c-14 16 -42 48 -62 72 -60 71 -54 41
7 -39 31 -39 55 -73 53 -74 -79 -56 -519 -336 -528 -336 -4 0 -11 16 -14 35
-10 52 -24 43 -19 -12 l4 -48 -242 -153 c-132 -84 -243 -151 -245 -149 -2 2 5
57 17 123 33 183 32 446 -3 614 -15 69 -26 148 -25 175 0 33 -7 64 -22 93 -34
67 -111 380 -111 454 0 24 3 29 17 24 9 -4 129 -73 267 -153z m1216 123 c0 -3
-4 -8 -10 -11 -5 -3 -10 -1 -10 4 0 6 5 11 10 11 6 0 10 -2 10 -4z m-38 -97
c-1 -22 -3 -44 -6 -47 -3 -3 -6 19 -6 48 0 29 3 51 6 47 4 -3 6 -25 6 -48z
m-1894 -50 c17 -25 7 -24 -34 2 -30 18 -74 68 -74 83 0 9 93 -65 108 -85z
m2616 32 c-4 -16 -1 -32 5 -35 18 -11 14 -105 -5 -124 -13 -13 -15 -28 -10
-79 4 -36 3 -63 -3 -63 -12 0 -21 36 -21 91 0 25 -4 49 -9 55 -5 5 -11 42 -13
83 -2 66 0 75 21 92 29 24 42 16 35 -20z m-767 -23 c-3 -8 -6 -5 -6 6 -1 11 2
17 5 13 3 -3 4 -12 1 -19z m78 2 c3 -5 1 -10 -4 -10 -6 0 -11 5 -11 10 0 6 2
10 4 10 3 0 8 -4 11 -10z m-1779 -52 c57 -16 74 -25 74 -40 0 -10 -2 -18 -4
-18 -18 0 -125 47 -141 62 -25 23 -19 23 71 -4z m1904 12 c0 -5 -21 -10 -46
-10 -27 0 -43 4 -39 10 3 6 24 10 46 10 21 0 39 -4 39 -10z m-190 -34 c0 -3
-4 -8 -10 -11 -5 -3 -10 -1 -10 4 0 6 5 11 10 11 6 0 10 -2 10 -4z m83 -28
c-4 -7 -6 -26 -4 -42 2 -20 -1 -27 -11 -24 -7 3 -13 19 -14 36 -1 17 3 29 8
26 4 -3 8 0 8 5 0 6 5 11 11 11 6 0 7 -6 2 -12z m1797 6 c0 -4 -22 -52 -49
-108 -51 -104 -107 -196 -120 -196 -9 0 -57 218 -50 224 5 6 202 85 212 85 4
1 7 -2 7 -5z m-3284 -82 c-10 -9 -15 2 -21 39 l-5 34 15 -34 c9 -18 14 -36 11
-39z m-262 38 c14 -5 26 -16 26 -25 0 -22 -13 -19 -40 10 -26 28 -24 30 14 15z
m1666 -32 c0 -5 -4 -8 -10 -8 -5 0 -10 10 -10 23 0 18 2 19 10 7 5 -8 10 -18
10 -22z m1868 -60 c-32 -86 -77 -170 -112 -212 -48 -56 -52 -30 -5 32 22 28
60 92 84 142 25 49 47 90 49 90 2 0 -5 -24 -16 -52z m-1786 15 c5 -25 -3 -63
-12 -63 -11 0 -23 57 -15 70 10 16 23 12 27 -7z m1557 -110 c12 -56 21 -111
21 -122 0 -11 -28 -45 -67 -81 -65 -59 -88 -66 -62 -19 10 20 9 25 -11 41
l-22 18 40 82 c23 46 47 111 53 146 7 34 16 57 20 50 4 -7 16 -59 28 -115z
m-79 55 c-42 -183 -186 -334 -378 -398 -74 -24 -223 -47 -337 -52 l-80 -3 -3
48 c-3 44 8 61 24 36 14 -23 124 15 124 43 0 10 5 18 10 18 15 0 12 56 -3 69
-8 6 -17 8 -20 4 -4 -3 -7 -2 -7 4 0 5 15 18 33 27 46 24 641 264 646 260 2
-2 -2 -27 -9 -56z m-2916 -77 c9 -38 16 -78 16 -88 -1 -23 -23 -53 -40 -53
-10 0 -12 19 -7 83 6 71 4 89 -13 122 -27 52 -25 66 4 33 15 -16 31 -55 40
-97z m2063 77 c-3 -7 -5 -2 -5 12 0 14 2 19 5 13 2 -7 2 -19 0 -25z m-667 -53
c0 -19 -4 -35 -8 -35 -4 0 -6 16 -4 35 2 19 6 35 8 35 2 0 4 -16 4 -35z m202
-105 c0 -62 -1 -70 -9 -70 -5 0 -8 42 -9 93 0 73 2 85 9 57 5 -19 9 -55 9 -80z
m-174 74 c0 -17 -3 -22 -8 -13 -5 6 -6 18 -3 26 8 19 11 16 11 -13z m-71 -36
c-3 -7 -5 -2 -5 12 0 14 2 19 5 13 2 -7 2 -19 0 -25z m2633 -42 c0 -9 -39 -12
-53 -4 -13 7 -14 13 -5 33 l11 25 24 -26 c12 -14 23 -27 23 -28z m-2580 8 c0
-14 -4 -23 -10 -19 -5 3 -10 15 -10 26 0 10 5 19 10 19 6 0 10 -12 10 -26z
m800 -84 c-8 -5 -18 -6 -24 -3 -5 4 -1 10 10 13 24 9 34 2 14 -10z m-2154 -87
c25 -130 26 -453 1 -588 -22 -119 -40 -178 -55 -183 -16 -5 -15 25 5 133 24
127 22 428 -4 582 l-19 112 20 21 c11 11 23 20 26 20 4 0 15 -44 26 -97z
m2948 35 c-37 -39 -142 -110 -155 -106 -6 2 13 20 43 40 29 20 71 55 93 78 22
22 41 36 43 30 3 -7 -9 -25 -24 -42z m-1407 -10 c-3 -7 -5 -2 -5 12 0 14 2 19
5 13 2 -7 2 -19 0 -25z m1193 -32 c-21 -53 -23 -55 -103 -89 -111 -47 -204
-74 -312 -88 -82 -11 -239 -8 -252 4 -15 16 15 27 70 27 224 0 456 69 567 168
25 22 47 38 49 36 2 -2 -6 -28 -19 -58z m-1422 23 c-3 -8 -7 -3 -11 10 -4 17
-3 21 5 13 5 -5 8 -16 6 -23z m667 -44 c7 -76 3 -105 -15 -105 -6 0 -10 35
-10 90 0 50 4 90 9 90 5 0 12 -34 16 -75z m1010 -20 c10 -78 -10 -196 -45
-270 -33 -69 -111 -150 -178 -184 -43 -22 -152 -54 -160 -47 -2 3 32 96 76
208 l80 203 78 46 c44 26 90 59 103 73 14 14 28 26 32 26 4 0 11 -25 14 -55z
m-1718 7 c19 -15 22 -30 29 -134 4 -70 3 -118 -2 -118 -11 0 -164 185 -164
197 1 7 99 72 110 72 3 1 15 -7 27 -17z m663 -6 c0 -13 3 -38 6 -55 5 -24 3
-31 -8 -31 -10 0 -18 14 -22 38 -9 57 -7 72 9 72 9 0 15 -9 15 -24z m-532 -43
c-4 -22 -22 -20 -26 1 -2 10 3 16 13 16 10 0 15 -7 13 -17z m-38 -28 c3 -31 1
-45 -9 -45 -12 0 -20 36 -14 61 6 23 20 14 23 -16z m-164 -102 c49 -60 92
-111 97 -114 5 -4 9 -22 10 -40 l2 -34 -200 -7 c-110 -3 -274 -9 -365 -11 -91
-3 -173 -8 -182 -12 -11 -4 -18 -3 -18 4 0 6 16 11 36 11 30 0 80 28 278 155
132 85 244 155 247 155 4 0 47 -48 95 -107z m1483 92 c-21 -21 -205 -83 -297
-101 -77 -15 -249 -17 -292 -5 -15 5 42 10 135 13 170 6 256 24 390 81 71 30
85 32 64 12z m-1216 -52 c-7 -2 -19 -2 -25 0 -7 3 -2 5 12 5 14 0 19 -2 13 -5z
m-1536 -170 c-2 -32 -3 -8 -3 52 0 61 1 87 3 58 2 -29 2 -78 0 -110z m2661
-20 c-38 -98 -73 -181 -76 -185 -4 -4 -39 -3 -77 3 -74 10 -180 37 -173 44 2
3 40 11 83 20 43 8 83 19 87 23 10 10 30 173 23 181 -9 9 -17 -7 -22 -47 -7
-50 -12 -51 -213 -53 l-145 -1 -3 54 -3 55 138 -1 c146 -1 212 10 348 58 39
13 77 25 86 25 13 1 2 -36 -53 -176z m-604 98 c4 -5 2 -20 -3 -33 -7 -16 -10
-18 -10 -6 -1 9 -4 23 -7 32 -6 17 11 23 20 7z m-634 -78 c0 -23 -17 -49 -26
-40 -4 3 -1 13 6 22 10 12 10 15 -1 15 -11 0 -11 2 1 10 20 13 20 13 20 -7z
m520 -15 c0 -13 -23 -5 -28 10 -2 7 2 10 12 6 9 -3 16 -11 16 -16z m143 -35
c-13 -2 -33 -2 -45 0 -13 2 -3 4 22 4 25 0 35 -2 23 -4z m127 -13 c0 -5 -7
-10 -15 -10 -8 0 -15 5 -15 10 0 6 7 10 15 10 8 0 15 -4 15 -10z m-95 -10 c-3
-5 -10 -10 -16 -10 -5 0 -9 5 -9 10 0 6 7 10 16 10 8 0 12 -4 9 -10z m-2118
-47 c-3 -10 -5 -2 -5 17 0 19 2 27 5 18 2 -10 2 -26 0 -35z m1489 31 c-3 -9
-6 -22 -6 -30 0 -8 -4 -14 -10 -14 -5 0 -10 14 -10 30 0 21 5 30 16 30 11 0
14 -5 10 -16z m-61 -13 c-3 -6 -11 -11 -17 -11 -6 0 -6 6 2 15 14 17 26 13 15
-4z m682 -13 c-3 -8 -6 -5 -6 6 -1 11 2 17 5 13 3 -3 4 -12 1 -19z m-477 -114
c2 -110 -1 -125 -10 -54 -11 78 -11 191 0 164 4 -12 9 -61 10 -110z m-140 58
c0 -5 -7 -17 -15 -28 -14 -19 -14 -19 -15 2 0 11 3 24 7 27 9 10 23 9 23 -1z
m677 -18 c-3 -3 -12 -4 -19 -1 -8 3 -5 6 6 6 11 1 17 -2 13 -5z m-150 -121
c-1 -14 -8 -28 -15 -31 -15 -5 -16 13 -2 39 14 26 19 24 17 -8z m53 -55 c0
-37 -3 -49 -11 -41 -12 12 -19 61 -12 80 11 29 23 10 23 -39z m-180 -52 c0 -3
-4 -8 -10 -11 -5 -3 -10 -1 -10 4 0 6 5 11 10 11 6 0 10 -2 10 -4z m-437 -121
c4 -8 2 -17 -3 -20 -6 -4 -10 3 -10 14 0 25 6 27 13 6z m110 -42 c-7 -2 -19
-2 -25 0 -7 3 -2 5 12 5 14 0 19 -2 13 -5z m-63 -75 c0 -10 -4 -18 -10 -18 -5
0 -10 15 -10 33 0 24 3 28 10 17 5 -8 10 -23 10 -32z"/>
<path d="M3991 6138 c0 -7 4 -22 9 -33 8 -19 9 -19 9 3 1 12 1 25 2 29 0 4 -4
9 -10 11 -6 2 -11 -2 -10 -10z"/>
<path d="M4015 5660 c3 -5 8 -10 11 -10 2 0 4 5 4 10 0 6 -5 10 -11 10 -5 0
-7 -4 -4 -10z"/>
<path d="M3961 5564 c0 -11 3 -14 6 -6 3 7 2 16 -1 19 -3 4 -6 -2 -5 -13z"/>
<path d="M4023 5490 c-6 -17 -8 -30 -3 -30 8 0 24 50 18 56 -2 2 -9 -10 -15
-26z"/>
<path d="M3985 5461 c-3 -5 -1 -12 5 -16 5 -3 10 1 10 9 0 18 -6 21 -15 7z"/>
<path d="M3988 5406 c-3 -14 -1 -31 3 -38 6 -8 9 1 9 25 0 42 -6 48 -12 13z"/>
<path d="M4017 5368 c-2 -7 -1 -22 4 -33 6 -16 8 -14 8 13 1 33 -4 41 -12 20z"/>
<path d="M3992 5300 c-1 -39 2 -49 8 -34 4 11 5 36 0 55 -7 31 -8 29 -8 -21z"/>
<path d="M4031 5068 c-9 -24 -6 -38 9 -38 5 0 8 14 8 30 -1 36 -6 38 -17 8z"/>
<path d="M4030 5011 c0 -6 5 -13 10 -16 6 -3 10 1 10 9 0 9 -4 16 -10 16 -5 0
-10 -4 -10 -9z"/>
<path d="M4050 4440 c0 -5 5 -10 10 -10 6 0 10 5 10 10 0 6 -4 10 -10 10 -5 0
-10 -4 -10 -10z"/>
<path d="M4031 4218 c-1 -21 4 -38 9 -38 11 0 11 14 0 50 -7 22 -8 21 -9 -12z"/>
<path d="M4032 4040 c0 -19 3 -60 8 -90 l7 -55 1 50 c0 28 -3 68 -7 90 l-9 40
0 -35z"/>
<path d="M4070 4051 c0 -25 6 -27 13 -6 4 8 2 17 -3 20 -6 4 -10 -3 -10 -14z"/>
<path d="M6477 2389 c7 -7 15 -10 18 -7 3 3 -2 9 -12 12 -14 6 -15 5 -6 -5z"/>
<path d="M2885 9965 c-61 -60 6 -171 111 -183 41 -4 47 -2 78 31 l34 37 58
-20 c62 -20 70 -20 61 4 -3 8 -26 17 -54 21 -61 8 -70 13 -91 56 -38 76 -146
106 -197 54z"/>
<path d="M4675 9949 c-61 -17 -75 -41 -75 -127 0 -42 -3 -99 -6 -127 -7 -70 2
-80 54 -55 24 12 67 26 97 32 l55 11 0 42 0 42 60 22 61 22 -7 37 c-8 50 -34
85 -75 99 -40 14 -121 15 -164 2z"/>
<path d="M6806 9913 c-3 -3 2 -12 12 -19 19 -15 32 -18 32 -6 0 11 -37 32 -44
25z"/>
<path d="M4967 9743 c-4 -3 -7 -19 -7 -34 0 -31 -18 -39 -90 -39 -63 0 -170
-25 -218 -49 -47 -24 -92 -74 -92 -102 0 -23 18 -61 34 -71 6 -4 11 -36 11
-70 0 -35 1 -97 3 -139 l2 -76 45 22 c24 13 68 26 96 30 l51 7 -2 107 c-5 227
-1 311 15 311 11 0 15 -11 15 -36 0 -24 4 -34 13 -31 6 2 12 19 12 38 0 33 2
34 40 37 l40 3 -32 -23 c-39 -28 -43 -41 -7 -28 36 14 42 13 49 -10 3 -11 13
-20 20 -20 13 0 20 -28 29 -124 5 -57 20 -64 115 -53 45 6 81 14 81 18 0 11
-24 11 -75 -1 -22 -5 -43 -6 -47 -2 -4 4 -16 49 -27 101 -11 51 -26 100 -32
108 -10 11 -8 15 9 20 12 3 22 9 22 14 0 4 20 11 45 15 67 10 51 28 -22 25
-55 -2 -63 0 -74 21 -7 13 -11 25 -10 26 5 7 -6 12 -12 5z m-277 -153 c0 -5
-4 -10 -10 -10 -5 0 -10 5 -10 10 0 6 5 10 10 10 6 0 10 -4 10 -10z"/>
<path d="M6702 9733 c-34 -4 -38 -19 -9 -37 12 -8 21 -5 36 8 21 19 28 37 14
34 -5 0 -23 -3 -41 -5z"/>
<path d="M3208 9707 c-15 -15 -18 -81 -4 -85 5 -1 11 10 12 24 4 39 19 50 49
36 23 -11 25 -16 25 -82 0 -66 10 -90 24 -54 11 28 6 150 -6 162 -16 16 -83
15 -100 -1z"/>
<path d="M6620 9557 c0 -8 9 -17 20 -20 11 -3 20 -1 20 4 0 4 -9 13 -20 19
-16 8 -20 8 -20 -3z"/>
<path d="M6433 9520 c9 -6 17 -16 17 -22 0 -7 -5 -6 -15 2 -8 6 -21 10 -29 8
-11 -2 -7 -8 14 -20 29 -16 30 -16 41 3 12 24 12 24 -21 33 -21 6 -22 5 -7 -4z"/>
<path d="M5973 9482 c-38 -4 -42 -16 -12 -33 17 -9 25 -8 36 4 22 22 13 32
-24 29z"/>
<path d="M6280 9455 c0 -14 4 -25 9 -25 4 0 6 11 3 25 -2 14 -6 25 -8 25 -2 0
-4 -11 -4 -25z"/>
<path d="M6346 9471 c-3 -5 -15 -7 -26 -4 -11 3 -20 0 -20 -6 0 -6 3 -11 8
-11 4 0 8 -11 8 -25 2 -26 -11 -34 -19 -12 -4 8 -6 7 -6 -3 0 -9 21 -24 49
-37 l50 -22 25 49 c14 27 25 51 25 54 0 5 -59 26 -76 26 -7 0 -15 -4 -18 -9z
m54 -77 c0 -2 -7 -4 -15 -4 -8 0 -15 4 -15 10 0 5 7 7 15 4 8 -4 15 -8 15 -10z"/>
<path d="M4837 9393 c-11 -10 -8 -103 3 -103 6 0 10 25 10 55 0 56 -1 60 -13
48z"/>
<path d="M5000 9270 c0 -5 5 -10 11 -10 5 0 7 5 4 10 -3 6 -8 10 -11 10 -2 0
-4 -4 -4 -10z"/>
<path d="M6003 9263 c-17 -6 -16 -38 1 -52 20 -17 56 3 56 30 0 16 -5 18 -27
13 -22 -4 -25 -3 -13 5 15 11 5 13 -17 4z"/>
<path d="M3214 9242 c4 -7 1 -12 -8 -12 -9 0 -17 -7 -17 -15 -3 -32 -4 -36
-19 -45 -9 -6 9 -9 55 -9 76 1 147 -20 181 -52 l22 -20 4 36 c5 46 -9 74 -49
97 -37 22 -181 39 -169 20z m43 -8 c-3 -3 -12 -4 -19 -1 -8 3 -5 6 6 6 11 1
17 -2 13 -5z"/>
<path d="M6080 9174 c0 -11 6 -38 13 -61 17 -57 148 -172 225 -197 29 -10 55
-16 57 -15 1 2 -1 27 -5 54 -5 28 -9 73 -9 101 -1 59 -6 65 -81 87 -49 15 -60
15 -105 2 -39 -11 -46 -12 -32 -1 23 18 22 23 -7 30 -13 3 -31 9 -40 12 -11 4
-16 0 -16 -12z"/>
<path d="M4830 9054 c0 -73 24 -70 28 4 2 42 0 52 -12 52 -13 0 -16 -12 -16
-56z"/>
<path d="M1175 9056 c-15 -14 -32 -22 -40 -20 -8 4 -19 -11 -30 -40 -14 -36
-16 -63 -11 -133 3 -48 7 -103 9 -122 2 -34 1 -34 -62 -54 -77 -25 -153 -90
-196 -169 -24 -43 -30 -65 -30 -119 0 -55 4 -72 27 -107 27 -40 365 -325 377
-318 7 5 209 -35 303 -59 l67 -17 52 32 c48 29 56 31 88 21 20 -6 46 -8 58 -5
12 4 43 -1 68 -9 25 -9 45 -12 45 -8 0 4 -18 13 -41 20 -22 7 -54 20 -70 30
l-30 18 51 37 c69 50 89 96 90 204 l0 83 104 120 c121 142 149 191 154 274 3
62 -10 102 -26 77 -6 -9 -14 -3 -27 20 -45 83 -110 102 -235 69 -44 -12 -85
-19 -90 -16 -14 9 -130 -26 -130 -39 1 -13 18 -36 41 -53 13 -11 27 -9 75 6
107 35 219 60 246 54 76 -15 99 -121 43 -205 -16 -23 -62 -82 -104 -130 l-75
-88 -28 48 c-31 51 -173 218 -200 236 -25 16 -52 -4 -56 -40 -3 -26 8 -40 82
-107 61 -56 92 -93 110 -132 14 -29 26 -60 26 -67 0 -13 -191 -240 -273 -325
-44 -46 -74 -54 -99 -25 -17 19 -220 651 -213 662 2 4 25 13 50 20 50 14 70
39 61 76 -7 28 -18 29 -76 9 -62 -22 -68 -20 -81 28 -24 88 -11 217 22 217 6
0 51 -42 100 -92 49 -51 89 -87 89 -81 0 7 9 12 21 10 12 -1 26 6 33 16 9 15
-2 30 -83 108 -85 81 -123 109 -151 109 -5 0 -21 -11 -35 -24z m45 -668 c45
-139 93 -288 107 -331 14 -43 22 -81 19 -84 -7 -7 -30 10 -246 186 -94 76
-180 151 -192 166 -45 57 -18 164 60 238 27 26 131 76 159 77 7 0 46 -107 93
-252z m626 -211 c8 3 14 11 14 19 0 16 16 19 25 4 19 -31 -62 -120 -110 -120
-10 0 -40 -13 -66 -30 -27 -16 -49 -25 -49 -19 0 5 37 53 83 106 80 94 82 95
85 65 2 -22 7 -29 18 -25z"/>
<path d="M1555 7871 c-3 -5 -2 -12 3 -15 5 -3 9 1 9 9 0 17 -3 19 -12 6z"/>
<path d="M1300 7860 c0 -5 5 -10 10 -10 6 0 10 5 10 10 0 6 -4 10 -10 10 -5 0
-10 -4 -10 -10z"/>
<path d="M1893 7805 c-3 -9 -3 -19 1 -22 3 -4 6 -1 6 5 0 16 57 15 63 0 2 -7
8 -10 12 -6 17 16 -5 38 -40 38 -23 0 -38 -6 -42 -15z"/>
<path d="M1580 7615 c0 -8 5 -15 10 -15 6 0 10 7 10 15 0 8 -4 15 -10 15 -5 0
-10 -7 -10 -15z"/>
<path d="M1550 7581 c0 -5 6 -14 14 -20 12 -10 13 -8 9 8 -5 21 -23 30 -23 12z"/>
<path d="M1460 7507 l-25 -11 30 -4 c16 -2 33 -9 36 -14 4 -6 14 -8 24 -5 9 4
13 11 10 17 -4 6 -11 8 -16 5 -5 -3 -6 1 -3 9 7 19 -18 20 -56 3z"/>
<path d="M1519 7458 c0 -2 -2 -19 -4 -38 -1 -19 -1 -27 2 -17 2 9 13 17 24 17
14 0 19 -7 19 -26 0 -14 4 -23 10 -19 6 4 8 10 5 14 -2 5 2 17 10 27 19 26 19
36 -2 32 -10 -1 -24 1 -30 5 -9 5 -13 2 -13 -8 0 -9 -5 -13 -10 -10 -6 4 -8
11 -5 16 4 5 4 9 1 9 -3 0 -6 -1 -7 -2z"/>
<path d="M1208 7433 c7 -3 16 -2 19 1 4 3 -2 6 -13 5 -11 0 -14 -3 -6 -6z"/>
<path d="M1612 7330 c0 -14 2 -19 5 -12 2 6 2 18 0 25 -3 6 -5 1 -5 -13z"/>
<path d="M5546 5113 c-6 -14 -9 -15 -15 -4 -19 31 -35 -38 -18 -76 9 -20 11
-21 22 -6 18 24 35 7 35 -38 0 -40 7 -48 28 -27 10 10 32 -7 103 -77 89 -87
139 -163 139 -210 0 -11 8 -33 18 -50 10 -16 31 -61 46 -99 l27 -69 -30 -29
c-26 -26 -30 -37 -30 -81 0 -29 -4 -79 -9 -112 -5 -33 -7 -64 -5 -69 10 -16
74 -37 95 -30 19 6 20 2 16 -67 l-3 -73 36 -18 c39 -18 105 -11 120 13 13 22
22 212 10 242 -12 32 -54 51 -95 43 -28 -6 -28 -5 -21 32 14 82 4 186 -25 242
-50 99 -100 168 -118 164 -20 -5 -56 64 -46 89 19 51 -183 266 -241 255 -18
-4 -21 -1 -17 15 3 11 13 22 24 24 10 3 18 9 18 14 0 5 -6 6 -14 3 -8 -3 -17
-1 -21 5 -9 16 -22 13 -29 -6z m444 -663 c0 -5 -2 -10 -4 -10 -3 0 -8 5 -11
10 -3 6 -1 10 4 10 6 0 11 -4 11 -10z"/>
<path d="M5198 55 c-4 -4 -4 -14 -1 -23 6 -13 -13 -14 -168 -8 -96 4 -189 9
-206 12 -29 5 -33 3 -33 -15 0 -21 2 -21 248 -21 136 0 242 4 236 8 -6 4 -16
16 -23 27 -9 15 -11 16 -7 3 4 -13 0 -18 -14 -18 -11 0 -20 8 -22 21 -2 11 -6
18 -10 14z"/>
</g>
</svg>
