<svg xmlns="http://www.w3.org/2000/svg" xmlns:xlink="http://www.w3.org/1999/xlink" version="1.1" x="0px" y="0px" viewBox="0 0 64 64" style="enable-background:new 0 0 64 64;" xml:space="preserve"><g><path d="M57,51c-0.361,0-0.718,0.033-1.069,0.1C55.977,50.734,56,50.367,56,50c0-4.963-4.037-9-9-9   c-3.507,0-6.669,2.063-8.135,5.164c-0.88-0.587-1.88-0.957-2.935-1.096C35.974,44.712,36,44.356,36,44c0-4.963-4.037-9-9-9   c-3.507,0-6.669,2.063-8.135,5.164C17.729,39.406,16.397,39,15,39c-3.554,0-6.497,2.661-6.941,6.096C7.71,45.032,7.356,45,7,45   c-3.309,0-6,2.691-6,6s2.691,6,6,6h14c0,3.309,2.691,6,6,6h30c3.309,0,6-2.691,6-6S60.309,51,57,51z M21.35,55H7   c-2.206,0-4-1.794-4-4s1.794-4,4-4c0.552,0,1.096,0.117,1.616,0.348c0.323,0.142,0.69,0.075,0.978-0.126s0.445-0.568,0.421-0.919   C10.008,46.203,10,46.103,10,46c0-2.757,2.243-5,5-5c1.362,0,2.637,0.541,3.589,1.524c0.249,0.256,0.615,0.36,0.963,0.273   c0.347-0.088,0.62-0.354,0.718-0.698C21.115,39.097,23.883,37,27,37c3.859,0,7,3.141,7,7c0,0.364-0.04,0.729-0.099,1.093   c-3.045,0.483-5.444,2.93-5.842,6.003C27.71,51.032,27.356,51,27,51C24.393,51,22.176,52.673,21.35,55z M57,61H27   c-2.206,0-4-1.794-4-4s1.794-4,4-4c0.552,0,1.096,0.117,1.616,0.348c0.323,0.142,0.69,0.074,0.978-0.126   c0.287-0.201,0.445-0.568,0.421-0.919C30.008,52.203,30,52.103,30,52c0-2.757,2.243-5,5-5c1.362,0,2.637,0.541,3.589,1.524   c0.248,0.256,0.616,0.36,0.963,0.273c0.347-0.088,0.62-0.354,0.718-0.698C41.115,45.097,43.883,43,47,43c3.859,0,7,3.141,7,7   c0,0.787-0.139,1.574-0.411,2.342c-0.14,0.395-0.02,0.834,0.301,1.103c0.322,0.268,0.774,0.306,1.139,0.101   C55.659,53.184,56.322,53,57,53c2.206,0,4,1.794,4,4S59.206,61,57,61z"/><path d="M32,27c5.514,0,10-4.486,10-10S37.514,7,32,7s-10,4.486-10,10S26.486,27,32,27z M32,9c4.411,0,8,3.589,8,8s-3.589,8-8,8   s-8-3.589-8-8S27.589,9,32,9z"/><rect x="31" y="1" width="2" height="4"/><rect x="31" y="29" width="2" height="4"/><rect x="16" y="16" width="4" height="2"/><rect x="44" y="16" width="4" height="2"/><rect x="20.5" y="4.379" transform="matrix(0.7071 -0.7071 0.7071 0.7071 1.701 17.1066)" width="2" height="4.243"/><rect x="41.5" y="25.379" transform="matrix(0.7071 -0.7071 0.7071 0.7071 -6.9975 38.1066)" width="2" height="4.243"/><rect x="40.379" y="5.5" transform="matrix(0.7071 -0.7071 0.7071 0.7071 7.8518 31.9558)" width="4.243" height="2"/><rect x="19.379" y="26.5" transform="matrix(0.7071 -0.7071 0.7071 0.7071 -13.1482 23.2574)" width="4.243" height="2"/></g></svg>