<svg xmlns="http://www.w3.org/2000/svg" xmlns:xlink="http://www.w3.org/1999/xlink" version="1.1" x="0px" y="0px" viewBox="0 0 60 60" style="enable-background:new 0 0 60 60;" xml:space="preserve"><path d="M53.5507813,22.4716797V11.0405273c0-0.4916992-0.3574219-0.9101563-0.8427734-0.987793L29.4956055,6.3569336  c-0.0168457-0.0026245-0.0323486,0.0039673-0.0491333,0.0021973c-0.0282593-0.0031738-0.0546875-0.008728-0.083313-0.0093994  c-0.008728-0.0002441-0.0159912-0.0050049-0.0247803-0.0050049c-0.0432129,0-0.0801392,0.0192871-0.1218872,0.0245972  c-0.0553589,0.0071411-0.109314,0.010437-0.1619263,0.0263672C29.036438,6.401123,29.0180054,6.3972778,29,6.4038086  l-10.206543,3.6679688V8.9853516c0-0.8061523-0.3149414-1.5571289-0.8696289-2.0981445  C17.3652344,6.3149414,16.6142578,6,15.8081055,6c-1.6411133,0-2.9760742,1.3393555-2.9760742,2.9853516V52H7.4492188  c-0.5522461,0-1,0.4472656-1,1s0.4477539,1,1,1h6.3828125h3.9614258h16.8374023c0.5527344,0,1-0.4472656,1-1s-0.4472656-1-1-1  H18.793457V23.4334717l10.189209,3.6643066c0.0004883,0.0001221,0.0009766,0.0003052,0.0014038,0.0004883l0.0090942,0.0032959  c0.1118164,0.0405273,0.2260742,0.0595703,0.3383789,0.0595703c0.00177,0,0.003479-0.0007935,0.005249-0.0007935  c0.0005493,0,0.0010376,0.0003052,0.0015869,0.0003052c0.0018311,0,0.0032959-0.0010376,0.005127-0.0010376  c0.0479126-0.0006104,0.0964966-0.0036011,0.1447754-0.0111694l23.2197266-3.6889648  C53.1933594,23.3823242,53.5507813,22.9633789,53.5507813,22.4716797z M39.4599609,9.9690552l5.4111328,0.8615112v11.8487549  l-5.4111328,0.8596191V9.9690552z M37.4599609,23.8566284l-7.121582,1.1313477V8.5167847l7.121582,1.1338501V23.8566284z   M14.8320313,52V8.9853516C14.8320313,8.4418945,15.2700195,8,15.8081055,8c0.2626953,0,0.5053711,0.1005859,0.7016602,0.3012695  c0.1831055,0.1787109,0.2836914,0.4213867,0.2836914,0.684082V52H14.8320313z M18.793457,12.1967773l9.5449219-3.4301758v15.9742432  l-9.5449219-3.4326172V12.1967773z M51.5507813,21.6181641l-4.6796875,0.7434082V11.1489868l4.6796875,0.7450562V21.6181641z"/></svg>